HIERARCHY
ROOT joint_Root
{
	OFFSET 0.0 0.0 0.0
	CHANNELS 6 Xposition Yposition Zposition Zrotation Xrotation Yrotation 
	JOINT Hips
	{
		OFFSET 4.5925 91.4895 -427.239
		CHANNELS 6 Xposition Yposition Zposition Zrotation Xrotation Yrotation 
		JOINT Spine
		{
			OFFSET 15.7357 0.0 0.0
			CHANNELS 6 Xposition Yposition Zposition Zrotation Xrotation Yrotation 
			JOINT Chest
			{
				OFFSET 8.98455 -0.406207 0.0
				CHANNELS 6 Xposition Yposition Zposition Zrotation Xrotation Yrotation 
				JOINT Neck
				{
					OFFSET 16.3773 0.0 0.0
					CHANNELS 6 Xposition Yposition Zposition Zrotation Xrotation Yrotation 
					JOINT Head
					{
						OFFSET 6.45672 0.0 0.0
						CHANNELS 6 Xposition Yposition Zposition Zrotation Xrotation Yrotation 
						End Site
						{
							OFFSET 0.0 0.0 0.0
						}
					}
				}
				JOINT Shoulder_L
				{
					OFFSET 12.9942 -0.242716 4.98039
					CHANNELS 6 Xposition Yposition Zposition Zrotation Xrotation Yrotation 
					JOINT UpperArm_L
					{
						OFFSET 5.34809 0.0 0.0
						CHANNELS 6 Xposition Yposition Zposition Zrotation Xrotation Yrotation 
						JOINT LowerArm_L
						{
							OFFSET 24.3286 1.87007e-05 0.0
							CHANNELS 6 Xposition Yposition Zposition Zrotation Xrotation Yrotation 
							JOINT Hand_L
							{
								OFFSET 22.2916 0.0 0.0
								CHANNELS 6 Xposition Yposition Zposition Zrotation Xrotation Yrotation 
								End Site
								{
									OFFSET 0.0 0.0 0.0
								}
							}
						}
					}
				}
				JOINT Shoulder_R
				{
					OFFSET 12.9945 -0.242716 -4.98039
					CHANNELS 6 Xposition Yposition Zposition Zrotation Xrotation Yrotation 
					JOINT UpperArm_R
					{
						OFFSET -5.34813 0.0 0.0
						CHANNELS 6 Xposition Yposition Zposition Zrotation Xrotation Yrotation 
						JOINT LowerArm_R
						{
							OFFSET -24.3289 0.000322201 0.0
							CHANNELS 6 Xposition Yposition Zposition Zrotation Xrotation Yrotation 
							JOINT Hand_R
							{
								OFFSET -22.2915 -0.000108084 0.0
								CHANNELS 6 Xposition Yposition Zposition Zrotation Xrotation Yrotation 
								End Site
								{
									OFFSET 0.0 0.0 0.0
								}
							}
						}
					}
				}
			}
		}
		JOINT UpperLeg_L
		{
			OFFSET -2.19248 -6.46944 0.0
			CHANNELS 6 Xposition Yposition Zposition Zrotation Xrotation Yrotation 
			JOINT LowerLeg_L
			{
				OFFSET 39.0811 0.0 -1.23785e-05
				CHANNELS 6 Xposition Yposition Zposition Zrotation Xrotation Yrotation 
				JOINT Foot_L
				{
					OFFSET 40.9854 0.0 -1.26872e-05
					CHANNELS 6 Xposition Yposition Zposition Zrotation Xrotation Yrotation 
					JOINT Toes_L
					{
						OFFSET 11.7543 0.0 0.0
						CHANNELS 6 Xposition Yposition Zposition Zrotation Xrotation Yrotation 
						End Site
						{
							OFFSET 0.0 0.0 0.0
						}
					}
				}
			}
		}
		JOINT UpperLeg_R
		{
			OFFSET -2.19251 6.46944 0.0
			CHANNELS 6 Xposition Yposition Zposition Zrotation Xrotation Yrotation 
			JOINT LowerLeg_R
			{
				OFFSET -39.0811 -0.00228153 -0.0401928
				CHANNELS 6 Xposition Yposition Zposition Zrotation Xrotation Yrotation 
				JOINT Foot_R
				{
					OFFSET -40.9854 0.0 0.0
					CHANNELS 6 Xposition Yposition Zposition Zrotation Xrotation Yrotation 
					JOINT Toes_R
					{
						OFFSET -11.7543 0.0 0.0
						CHANNELS 6 Xposition Yposition Zposition Zrotation Xrotation Yrotation 
						End Site
						{
							OFFSET 0.0 0.0 0.0
						}
					}
				}
			}
		}
	}
}
MOTION
Frames:	5
Frame Time:	0.0333333
0.000000 0.000000 0.000000 0.000000 0.000000 -0.000000 -0.310208 90.010900 -2.406890 88.474600 -4.636140 12.444300 15.735700 0.000005 -0.000001 85.990500 77.518200 -86.961600 8.984550 -0.406207 -0.000000 17.127700 -1.795280 -1.674970 16.377300 -0.000001 -0.000001 11.852900 -3.714360 1.398440 6.456720 -0.000001 -0.000000 -4.749450 -1.398600 -10.917700 12.994200 -0.242716 4.980390 -91.416200 5.992190 -76.677000 5.348090 -0.000007 -0.000001 -50.072900 42.420300 -31.263600 24.328600 0.000019 0.000005 6.474290 16.947600 -21.271100 22.291600 -0.000001 0.000005 10.311000 5.243840 1.594910 12.994500 -0.242716 -4.980390 89.687900 1.233410 -75.797600 -5.348130 -0.000001 -0.000004 -72.173900 -11.767400 -79.832000 -24.328900 0.000322 -0.000009 15.150200 -5.317120 -108.894000 -22.291500 -0.000108 -0.000004 20.975300 5.244550 1.576300 -2.192480 -6.469440 -0.000000 -173.151000 -12.077400 -1.375830 39.081100 -0.000007 -0.000012 -0.213335 0.295112 35.863400 40.985400 -0.000006 -0.000013 -0.273732 3.369330 -71.581900 11.754300 -0.000000 0.000003 -0.000133 -0.001312 -16.627600 -2.192510 6.469440 -0.000001 175.468000 17.371600 179.491000 -39.081100 -0.002282 -0.040193 -0.048981 0.075371 34.742900 -40.985400 0.000008 0.000006 6.281240 12.254000 -72.191200 -11.754300 -0.000006 -0.000006 -0.002384 -0.033424 -17.932300
0.000000 0.000000 0.000000 0.000000 0.000000 -0.000000 -0.297778 90.019100 -2.432490 88.474700 -4.638830 12.455000 15.735700 0.000005 -0.000001 85.981400 77.520900 -86.943100 8.984550 -0.406207 -0.000000 17.122000 -1.797980 -1.655820 16.377300 -0.000001 -0.000001 11.890800 -3.735520 1.467610 6.456720 -0.000001 -0.000000 -4.840560 -1.345190 -10.972500 12.994200 -0.242716 4.980390 -91.388100 5.912940 -76.763700 5.348090 -0.000007 -0.000001 -50.179800 42.433600 -31.249700 24.328600 0.000019 0.000005 6.450960 16.987200 -21.156900 22.291600 -0.000001 0.000005 10.283600 5.245100 1.561990 12.994500 -0.242716 -4.980390 89.723400 1.097040 -75.848200 -5.348130 -0.000001 -0.000004 -72.219600 -11.781400 -79.794100 -24.328900 0.000322 -0.000009 15.102300 -5.297640 -108.888000 -22.291500 -0.000108 -0.000004 20.978400 5.247430 1.500480 -2.192480 -6.469440 -0.000000 -173.154000 -12.084800 -1.368270 39.081100 -0.000007 -0.000012 -0.215505 0.298441 35.833600 40.985400 -0.000006 -0.000013 -0.264419 3.374320 -71.549900 11.754300 -0.000000 0.000003 -0.000133 -0.001313 -16.627600 -2.192510 6.469440 -0.000001 175.469000 17.400200 179.491000 -39.081100 -0.002282 -0.040193 -0.043056 0.066882 34.720800 -40.985400 0.000008 0.000006 6.341860 12.264300 -72.173300 -11.754300 -0.000006 -0.000006 -0.002402 -0.033642 -17.941100
0.000000 0.000000 0.000000 0.000000 0.000000 -0.000000 -0.284432 90.020200 -2.469850 88.480700 -4.606130 12.412300 15.735700 0.000005 -0.000001 85.962800 77.552300 -86.913500 8.984550 -0.406207 -0.000000 17.058900 -1.800370 -1.634340 16.377300 -0.000001 -0.000001 11.934900 -3.742370 1.492020 6.456720 -0.000001 -0.000000 -4.891210 -1.378020 -10.928700 12.994200 -0.242716 4.980390 -91.366000 5.868680 -76.872400 5.348090 -0.000007 -0.000001 -50.280000 42.424700 -31.163000 24.328600 0.000019 0.000005 6.429010 16.931900 -21.151600 22.291600 -0.000001 0.000005 10.332100 5.245070 1.562650 12.994500 -0.242716 -4.980390 89.744000 1.016950 -75.870000 -5.348130 -0.000001 -0.000004 -72.209700 -11.799200 -79.771900 -24.328900 0.000322 -0.000009 15.109200 -5.287820 -108.847000 -22.291500 -0.000108 -0.000004 20.938100 5.246750 1.518510 -2.192480 -6.469440 -0.000000 -173.193000 -12.083000 -1.462860 39.081100 -0.000007 -0.000012 -0.212945 0.294749 35.847100 40.985400 -0.000006 -0.000013 -0.244618 3.379010 -71.519000 11.754300 -0.000000 0.000003 -0.000126 -0.001254 -16.625400 -2.192510 6.469440 -0.000001 175.455000 17.425500 179.424000 -39.081100 -0.002282 -0.040193 -0.049393 0.076018 34.724300 -40.985400 0.000008 0.000006 6.296540 12.274500 -72.140600 -11.754300 -0.000006 -0.000006 -0.002636 -0.036416 -18.054000
0.000000 0.000000 0.000000 0.000000 0.000000 -0.000000 -0.277087 90.028000 -2.496380 88.477200 -4.607950 12.386900 15.735700 0.000005 -0.000001 86.004100 77.584000 -86.946000 8.984550 -0.406207 -0.000000 16.997300 -1.777440 -1.621250 16.377300 -0.000001 -0.000001 11.996200 -3.775120 1.552520 6.456720 -0.000001 -0.000000 -4.909160 -1.406850 -10.879700 12.994200 -0.242716 4.980390 -91.340900 5.794740 -76.947800 5.348090 -0.000007 -0.000001 -50.423400 42.387100 -31.089200 24.328600 0.000019 0.000005 6.425470 16.942000 -21.129800 22.291600 -0.000001 0.000005 10.320000 5.245740 1.545130 12.994500 -0.242716 -4.980390 89.768800 0.920762 -75.906000 -5.348130 -0.000001 -0.000004 -72.234800 -11.824800 -79.729100 -24.328900 0.000322 -0.000009 15.172300 -5.308210 -108.838000 -22.291500 -0.000108 -0.000004 21.044400 5.245890 1.541150 -2.192480 -6.469440 -0.000000 -173.202000 -12.094900 -1.491580 39.081100 -0.000007 -0.000012 -0.212322 0.294165 35.821300 40.985400 -0.000006 -0.000013 -0.238717 3.375040 -71.491100 11.754300 -0.000000 0.000003 -0.000129 -0.001282 -16.626500 -2.192510 6.469440 -0.000001 175.468000 17.432200 179.393000 -39.081100 -0.002282 -0.040193 -0.048991 0.075540 34.688000 -40.985400 0.000008 0.000006 6.233570 12.278000 -72.085100 -11.754300 -0.000006 -0.000006 -0.002582 -0.035782 -18.028200
0.000000 0.000000 0.000000 0.000000 0.000000 -0.000000 -0.266242 90.032100 -2.510760 88.461600 -4.618940 12.378000 15.735700 0.000005 -0.000001 86.074100 77.608200 -87.002700 8.984550 -0.406207 -0.000000 16.951200 -1.743090 -1.600380 16.377300 -0.000001 -0.000001 12.108700 -3.803460 1.645780 6.456720 -0.000001 -0.000000 -4.939540 -1.404220 -10.896000 12.994200 -0.242716 4.980390 -91.320300 5.726870 -76.994500 5.348090 -0.000007 -0.000001 -50.497500 42.389600 -31.073600 24.328600 0.000019 0.000005 6.412180 16.889100 -21.148000 22.291600 -0.000001 0.000005 10.445200 5.244450 1.578860 12.994500 -0.242716 -4.980390 89.792100 0.830854 -75.950700 -5.348130 -0.000001 -0.000004 -72.313400 -11.871600 -79.700000 -24.328900 0.000322 -0.000009 15.072800 -5.274850 -108.848000 -22.291500 -0.000108 -0.000004 21.008100 5.245640 1.547680 -2.192480 -6.469440 -0.000000 -173.189000 -12.123200 -1.503610 39.081100 -0.000007 -0.000012 -0.210892 0.292243 35.815800 40.985400 -0.000006 -0.000013 -0.229651 3.380780 -71.480500 11.754300 -0.000000 0.000003 -0.000130 -0.001289 -16.626700 -2.192510 6.469440 -0.000001 175.481000 17.456800 179.385000 -39.081100 -0.002282 -0.040193 -0.044650 0.069320 34.667800 -40.985400 0.000008 0.000006 6.261380 12.313900 -72.072000 -11.754300 -0.000006 -0.000006 -0.002539 -0.035272 -18.007500
